<?xml version="1.0" encoding="utf-8"?>
<!-- Generator: Adobe Illustrator 16.0.0, SVG Export Plug-In . SVG Version: 6.00 Build 0)  -->
<!DOCTYPE svg PUBLIC "-//W3C//DTD SVG 1.1//EN" "http://www.w3.org/Graphics/SVG/1.1/DTD/svg11.dtd">
<svg version="1.1" id="圖層_1" xmlns="http://www.w3.org/2000/svg" xmlns:xlink="http://www.w3.org/1999/xlink" x="0px" y="0px"
	 width="209.158px" height="51.9px" viewBox="0 0 209.158 51.9" enable-background="new 0 0 209.158 51.9" xml:space="preserve">
<g>
	<path fill="#FF5E41" d="M46.14,51.9H11.52c-3.201,0-5.92-1.119-8.16-3.36C1.119,46.3,0,43.581,0,40.38V0h11.52v39.18
		c0,0.36,0.11,0.651,0.33,0.87c0.219,0.22,0.489,0.33,0.81,0.33h33.48V51.9z"/>
	<path fill="#FF5E41" d="M95.58,25.92c0,7.6-0.96,13.56-2.88,17.88c-2.4,5.4-6.24,8.1-11.521,8.1h-23.1c-5.28,0-9.12-2.7-11.52-8.1
		c-1.92-4.32-2.88-10.28-2.88-17.88c0-4.959,0.339-9.12,1.02-12.48c0.84-4.2,2.24-7.4,4.2-9.6C51.18,1.281,54.24,0,58.08,0h23.1
		C86.7,0,90.62,2.7,92.94,8.1C94.7,12.22,95.58,18.16,95.58,25.92z M83.82,25.92c0-4.719-0.28-8.3-0.84-10.74
		c-0.561-2.439-1.541-3.66-2.94-3.66H59.28c-1.56,0-2.59,1.18-3.09,3.54c-0.5,2.36-0.75,5.98-0.75,10.86c0,4.641,0.3,8.21,0.9,10.71
		c0.6,2.5,1.58,3.75,2.94,3.75h20.76c1.359,0,2.33-1.26,2.91-3.78C83.529,34.08,83.82,30.52,83.82,25.92z"/>
	<path fill="#FF5E41" d="M153.658,40.38c0,3.12-1.121,5.82-3.359,8.1c-2.24,2.28-4.961,3.42-8.16,3.42h-28.86
		c-3.201,0-5.921-1.119-8.16-3.36c-2.241-2.24-3.36-4.959-3.36-8.16V11.52c0-3.2,1.119-5.919,3.36-8.16
		c2.239-2.24,4.959-3.36,8.16-3.36h40.379v11.52h-39.24c-0.32,0-0.591,0.11-0.811,0.33c-0.22,0.22-0.329,0.49-0.329,0.81v26.52
		c0,0.36,0.109,0.651,0.329,0.87c0.22,0.22,0.49,0.33,0.811,0.33h26.58c0.76,0,1.141-0.399,1.141-1.2v-7.5h-11.58V20.16h23.1V40.38z
		"/>
	<path fill="#FF5E41" d="M209.158,25.92c0,7.6-0.959,13.56-2.879,17.88c-2.4,5.4-6.24,8.1-11.521,8.1h-23.1
		c-5.279,0-9.119-2.7-11.52-8.1c-1.92-4.32-2.881-10.28-2.881-17.88c0-4.959,0.34-9.12,1.021-12.48c0.84-4.2,2.238-7.4,4.199-9.6
		c2.279-2.559,5.34-3.84,9.18-3.84h23.1c5.521,0,9.441,2.7,11.762,8.1C208.279,12.22,209.158,18.16,209.158,25.92z M197.398,25.92
		c0-4.719-0.279-8.3-0.84-10.74c-0.561-2.439-1.541-3.66-2.939-3.66h-20.76c-1.561,0-2.592,1.18-3.09,3.54
		c-0.502,2.36-0.75,5.98-0.75,10.86c0,4.641,0.299,8.21,0.898,10.71c0.602,2.5,1.58,3.75,2.941,3.75h20.76
		c1.359,0,2.33-1.26,2.91-3.78C197.107,34.08,197.398,30.52,197.398,25.92z"/>
</g>
</svg>
